<svg xmlns="http://www.w3.org/2000/svg" xmlns:xlink="http://www.w3.org/1999/xlink" version="1.1" width="256" height="256" viewBox="0 0 256 256" xml:space="preserve">

<defs>
</defs>
<g id="seth" style="stroke: none; stroke-width: 0; stroke-dasharray: none; stroke-linecap: butt; stroke-linejoin: miter; stroke-miterlimit: 10; fill: none; fill-rule: nonzero; opacity: 1;" transform="translate(1.4065934065934016 1.4065934065934016) scale(2.31 2.31)">
	<path d="M 81.002 78.646 H 8.998 C 4.599 78.646 1 75.047 1 70.648 V 47.739 c 0 -4.399 3.599 -7.998 7.998 -7.998 h 72.004 c 4.399 0 7.998 3.599 7.998 7.998 v 22.909 C 89 75.047 85.401 78.646 81.002 78.646 z" style="stroke: none; stroke-width: 1; stroke-dasharray: none; stroke-linecap: butt; stroke-linejoin: miter; stroke-miterlimit: 10; fill: #047aed; fill-rule: nonzero; opacity: 1;" transform=" matrix(1 0 0 1 0 0) " stroke-linecap="round" />
	<path d="M 14.078 69.06 c -0.552 0 -1 -0.447 -1 -1 V 50.326 c 0 -0.553 0.448 -1 1 -1 h 9.025 c 0.552 0 1 0.447 1 1 s -0.448 1 -1 1 h -8.025 V 68.06 C 15.078 68.612 14.63 69.06 14.078 69.06 z" style="stroke: none; stroke-width: 1; stroke-dasharray: none; stroke-linecap: butt; stroke-linejoin: miter; stroke-miterlimit: 10; fill: orange; fill-rule: nonzero; opacity: 1;" transform=" matrix(1 0 0 1 0 0) " stroke-linecap="round" />
	<path d="M 18.591 60.193 h -3.908 c -0.552 0 -1 -0.447 -1 -1 s 0.448 -1 1 -1 h 3.908 c 0.552 0 1 0.447 1 1 S 19.143 60.193 18.591 60.193 z" style="stroke: none; stroke-width: 1; stroke-dasharray: none; stroke-linecap: butt; stroke-linejoin: miter; stroke-miterlimit: 10; fill: orange; fill-rule: nonzero; opacity: 1;" transform=" matrix(1 0 0 1 0 0) " stroke-linecap="round" />
	<path d="M 31.163 69.06 c -0.552 0 -1 -0.447 -1 -1 V 50.326 c 0 -0.553 0.448 -1 1 -1 h 6.982 c 1.678 0 3.043 1.365 3.043 3.043 v 4.781 c 0 1.678 -1.365 3.043 -3.043 3.043 h -5.982 v 7.866 C 32.163 68.612 31.715 69.06 31.163 69.06 z M 32.163 58.193 h 5.982 c 0.575 0 1.043 -0.468 1.043 -1.043 v -4.781 c 0 -0.575 -0.468 -1.043 -1.043 -1.043 h -5.982 V 58.193 z" style="stroke: none; stroke-width: 1; stroke-dasharray: none; stroke-linecap: butt; stroke-linejoin: miter; stroke-miterlimit: 10; fill: orange; fill-rule: nonzero; opacity: 1;" transform=" matrix(1 0 0 1 0 0) " stroke-linecap="round" />
	<path d="M 40.189 69.06 c -0.364 0 -0.716 -0.199 -0.892 -0.547 l -4.512 -8.866 c -0.25 -0.492 -0.055 -1.094 0.438 -1.345 c 0.493 -0.249 1.094 -0.055 1.345 0.438 l 4.512 8.866 c 0.25 0.492 0.055 1.094 -0.438 1.345 C 40.496 69.024 40.341 69.06 40.189 69.06 z" style="stroke: none; stroke-width: 1; stroke-dasharray: none; stroke-linecap: butt; stroke-linejoin: miter; stroke-miterlimit: 10; fill: orange; fill-rule: nonzero; opacity: 1;" transform=" matrix(1 0 0 1 0 0) " stroke-linecap="round" />
	<path d="M 58.055 69.06 H 49.03 c -0.553 0 -1 -0.447 -1 -1 V 50.326 c 0 -0.553 0.447 -1 1 -1 h 9.024 c 0.553 0 1 0.447 1 1 s -0.447 1 -1 1 H 50.03 V 67.06 h 8.024 c 0.553 0 1 0.447 1 1 S 58.607 69.06 58.055 69.06 z" style="stroke: none; stroke-width: 1; stroke-dasharray: none; stroke-linecap: butt; stroke-linejoin: miter; stroke-miterlimit: 10; fill: orange; fill-rule: nonzero; opacity: 1;" transform=" matrix(1 0 0 1 0 0) " stroke-linecap="round" />
	<path d="M 53.543 60.193 h -3.908 c -0.553 0 -1 -0.447 -1 -1 s 0.447 -1 1 -1 h 3.908 c 0.553 0 1 0.447 1 1 S 54.096 60.193 53.543 60.193 z" style="stroke: none; stroke-width: 1; stroke-dasharray: none; stroke-linecap: butt; stroke-linejoin: miter; stroke-miterlimit: 10; fill: orange; fill-rule: nonzero; opacity: 1;" transform=" matrix(1 0 0 1 0 0) " stroke-linecap="round" />
	<path d="M 75.922 69.06 h -9.025 c -0.553 0 -1 -0.447 -1 -1 V 50.326 c 0 -0.553 0.447 -1 1 -1 h 9.025 c 0.553 0 1 0.447 1 1 s -0.447 1 -1 1 h -8.025 V 67.06 h 8.025 c 0.553 0 1 0.447 1 1 S 76.475 69.06 75.922 69.06 z" style="stroke: none; stroke-width: 1; stroke-dasharray: none; stroke-linecap: butt; stroke-linejoin: miter; stroke-miterlimit: 10; fill: orange; fill-rule: nonzero; opacity: 1;" transform=" matrix(1 0 0 1 0 0) " stroke-linecap="round" />
	<path d="M 71.409 60.193 h -3.908 c -0.553 0 -1 -0.447 -1 -1 s 0.447 -1 1 -1 h 3.908 c 0.553 0 1 0.447 1 1 S 71.962 60.193 71.409 60.193 z" style="stroke: none; stroke-width: 1; stroke-dasharray: none; stroke-linecap: butt; stroke-linejoin: miter; stroke-miterlimit: 10; fill: orange; fill-rule: nonzero; opacity: 1;" transform=" matrix(1 0 0 1 0 0) " stroke-linecap="round" />
	<path d="M 81.002 79.646 H 8.998 C 4.037 79.646 0 75.609 0 70.647 V 47.738 c 0 -4.961 4.037 -8.998 8.998 -8.998 h 72.004 c 4.962 0 8.998 4.037 8.998 8.998 v 22.909 C 90 75.609 85.964 79.646 81.002 79.646 z M 8.998 40.74 C 5.139 40.74 2 43.879 2 47.738 v 22.909 c 0 3.858 3.139 6.998 6.998 6.998 h 72.004 c 3.858 0 6.998 -3.14 6.998 -6.998 V 47.738 c 0 -3.859 -3.14 -6.998 -6.998 -6.998 H 8.998 z" style="stroke: none; stroke-width: 1; stroke-dasharray: none; stroke-linecap: butt; stroke-linejoin: miter; stroke-miterlimit: 10; fill: orange; fill-rule: nonzero; opacity: 1;" transform=" matrix(1 0 0 1 0 0) " stroke-linecap="round" />
	<circle cx="45.002" cy="17.072" r="5.722" style="stroke: none; stroke-width: 1; stroke-dasharray: none; stroke-linecap: butt; stroke-linejoin: miter; stroke-miterlimit: 10; fill: #047aed; fill-rule: nonzero; opacity: 1;" transform="  matrix(1 0 0 1 0 0) "/>
	<path d="M 45 23.797 c -3.707 0 -6.722 -3.015 -6.722 -6.722 c 0 -3.706 3.015 -6.721 6.722 -6.721 c 3.706 0 6.722 3.015 6.722 6.721 C 51.722 20.782 48.706 23.797 45 23.797 z M 45 12.354 c -2.604 0 -4.722 2.118 -4.722 4.721 s 2.118 4.722 4.722 4.722 s 4.722 -2.118 4.722 -4.722 S 47.604 12.354 45 12.354 z" style="stroke: none; stroke-width: 1; stroke-dasharray: none; stroke-linecap: butt; stroke-linejoin: miter; stroke-miterlimit: 10; fill: orange; fill-rule: nonzero; opacity: 1;" transform=" matrix(1 0 0 1 0 0) " stroke-linecap="round" />
	<path d="M 16.637 40.74 c -0.293 0 -0.583 -0.128 -0.781 -0.375 c -0.345 -0.431 -0.276 -1.061 0.155 -1.406 l 23.868 -19.133 c 0.43 -0.345 1.059 -0.277 1.406 0.155 c 0.345 0.431 0.276 1.061 -0.155 1.406 L 17.262 40.521 C 17.078 40.668 16.857 40.74 16.637 40.74 z" style="stroke: none; stroke-width: 1; stroke-dasharray: none; stroke-linecap: butt; stroke-linejoin: miter; stroke-miterlimit: 10; fill: orange; fill-rule: nonzero; opacity: 1;" transform=" matrix(1 0 0 1 0 0) " stroke-linecap="round" />
	<path d="M 73.362 40.74 c -0.219 0 -0.438 -0.071 -0.623 -0.219 L 48.843 21.427 c -0.432 -0.345 -0.502 -0.974 -0.157 -1.405 s 0.974 -0.502 1.405 -0.157 l 23.896 19.095 c 0.432 0.345 0.502 0.974 0.157 1.405 C 73.947 40.612 73.656 40.74 73.362 40.74 z" style="stroke: none; stroke-width: 1; stroke-dasharray: none; stroke-linecap: butt; stroke-linejoin: miter; stroke-miterlimit: 10; fill: orange; fill-rule: nonzero; opacity: 1;" transform=" matrix(1 0 0 1 0 0) " stroke-linecap="round" />
</g>
</svg>