<svg xmlns="http://www.w3.org/2000/svg" xmlns:xlink="http://www.w3.org/1999/xlink" version="1.1" width="256" height="256" viewBox="0 0 256 256" xml:space="preserve">

<defs>
</defs>
<g style="stroke: none; stroke-width: 0; stroke-dasharray: none; stroke-linecap: butt; stroke-linejoin: miter; stroke-miterlimit: 10; fill: none; fill-rule: nonzero; opacity: 1;" transform="translate(1.4065934065934016 1.4065934065934016) scale(2.81 2.81)" >
	<path d="M 24.158 57.596 h 54.898 c 2.293 0 4.313 -1.509 4.964 -3.709 l 5.841 -19.759 c 0.633 -2.141 -0.972 -4.289 -3.204 -4.289 H 16.95 L 24.158 57.596 z" style="stroke: orange; stroke-width: 3; stroke-dasharray: none; stroke-linecap: butt; stroke-linejoin: miter; stroke-miterlimit: 10; fill: #047aed; fill-rule: nonzero; opacity: 1;" transform=" matrix(1 0 0 1 0 0) " stroke-linecap="round" />
	<path d="M 79.585 70.399 H 27.091 c -0.687 0 -1.287 -0.464 -1.46 -1.129 L 14.404 26.034 c -0.421 -1.62 -1.883 -2.751 -3.557 -2.751 H 1.508 C 0.675 23.283 0 22.608 0 21.775 s 0.675 -1.508 1.508 -1.508 h 9.339 c 3.048 0 5.711 2.06 6.476 5.01 l 10.935 42.106 h 51.327 c 0.833 0 1.508 0.676 1.508 1.508 C 81.093 69.724 80.417 70.399 79.585 70.399 z" style="stroke: orange; stroke-width: 1; stroke-dasharray: none; stroke-linecap: butt; stroke-linejoin: miter; stroke-miterlimit: 10; fill: orange; fill-rule: nonzero; opacity: 1;" transform=" matrix(1 0 0 1 0 0) " stroke-linecap="round" />
	<circle cx="36.176" cy="80.946" r="6.536" style="stroke: darkorange; stroke-width: 1.5; stroke-dasharray: 4px; stroke-linecap: butt; stroke-linejoin: miter; stroke-miterlimit: 10; fill: #047aed; fill-rule: nonzero; opacity: 1;animation: rotate 0.7s linear infinite;position: fixed;transform-origin: center;transform-box: fill-box;" transform="  matrix(1 0 0 1 0 0) "/>
	<circle cx="69.15599999999999" cy="80.946" r="6.536" style="stroke: darkorange; stroke-width: 1.5; stroke-dasharray: 4px; stroke-linecap: butt; stroke-linejoin: miter; stroke-miterlimit: 10; fill: #047aed; fill-rule: nonzero; opacity: 1;animation: rotate 0.7s linear infinite;transform-origin: center;transform-origin: center;transform-box: fill-box;" transform="  matrix(1 0 0 1 0 0) "/>
</g>
</svg>